<svg width="50" height="58" viewBox="0 0 50 58" fill="none" xmlns="http://www.w3.org/2000/svg">
<path d="M33.3333 53.232V46.2961C33.4115 45.1438 33.2773 43.9853 32.9396 42.8978C32.602 41.8102 32.0686 40.8185 31.375 39.9886C37.9167 39.1428 44.7917 36.2669 44.7917 23.0719C44.7911 19.6979 43.6723 16.4532 41.6667 14.0094C42.6164 11.0575 42.5492 7.79462 41.4792 4.89861C41.4792 4.89861 39.0208 4.05278 33.3333 8.47528C28.5583 6.9741 23.525 6.9741 18.75 8.47528C13.0625 4.05278 10.6042 4.89861 10.6042 4.89861C9.53411 7.79462 9.46696 11.0575 10.4167 14.0094C8.3961 16.4713 7.27609 19.7453 7.29166 23.1444C7.29166 36.2428 14.1667 39.1186 20.7083 40.0611C20.0229 40.8827 19.4943 41.8625 19.1569 42.9367C18.8195 44.011 18.6808 45.1556 18.75 46.2961V53.232" stroke="white" stroke-width="1.5" stroke-linecap="round" stroke-linejoin="round"/>
<path d="M18.75 48.3986C12.5 50.75 7.29169 48.3986 4.16669 41.1486" stroke="white" stroke-width="1.5" stroke-linecap="round" stroke-linejoin="round"/>
</svg>