<svg width="55" height="55" viewBox="0 0 55 55" fill="none" xmlns="http://www.w3.org/2000/svg">
<path d="M17.1875 20.625H8.02079C7.71689 20.625 7.42545 20.7457 7.21056 20.9606C6.99568 21.1755 6.87495 21.4669 6.87495 21.7708V49.2708C6.87495 49.5747 6.99568 49.8662 7.21056 50.0811C7.42545 50.2959 7.71689 50.4167 8.02079 50.4167H17.1875C17.4913 50.4167 17.7828 50.2959 17.9977 50.0811C18.2126 49.8662 18.3333 49.5747 18.3333 49.2708V21.7708C18.3333 21.4669 18.2126 21.1755 17.9977 20.9606C17.7828 20.7457 17.4913 20.625 17.1875 20.625ZM16.0416 48.125H9.16662V22.9167H16.0416V48.125ZM41.25 20.625C38.7635 20.625 36.3458 21.4454 34.375 22.9602V21.7708C34.375 21.4669 34.2542 21.1755 34.0393 20.9606C33.8245 20.7457 33.533 20.625 33.2291 20.625H24.0625C23.7586 20.625 23.4671 20.7457 23.2522 20.9606C23.0373 21.1755 22.9166 21.4669 22.9166 21.7708V49.2708C22.9166 49.5747 23.0373 49.8662 23.2522 50.0811C23.4671 50.2959 23.7586 50.4167 24.0625 50.4167H33.2291C33.533 50.4167 33.8245 50.2959 34.0393 50.0811C34.2542 49.8662 34.375 49.5747 34.375 49.2708V36.6667C34.375 35.755 34.7371 34.8806 35.3818 34.236C36.0264 33.5913 36.9008 33.2292 37.8125 33.2292C38.7241 33.2292 39.5985 33.5913 40.2431 34.236C40.8878 34.8806 41.25 35.755 41.25 36.6667V49.2708C41.25 49.5747 41.3707 49.8662 41.5856 50.0811C41.8004 50.2959 42.0919 50.4167 42.3958 50.4167H51.5625C51.8663 50.4167 52.1578 50.2959 52.3727 50.0811C52.5876 49.8662 52.7083 49.5747 52.7083 49.2708V32.0833C52.7047 29.0455 51.4963 26.1332 49.3482 23.9851C47.2001 21.837 44.2878 20.6286 41.25 20.625ZM50.4166 48.125H43.5416V36.6667C43.5416 35.1472 42.938 33.69 41.8636 32.6155C40.7892 31.5411 39.3319 30.9375 37.8125 30.9375C36.293 30.9375 34.8357 31.5411 33.7613 32.6155C32.6869 33.69 32.0833 35.1472 32.0833 36.6667V48.125H25.2083V22.9167H32.0833V25.6735C32.0832 25.9109 32.1569 26.1423 32.294 26.336C32.4312 26.5297 32.6251 26.676 32.849 26.7547C33.0729 26.8335 33.3157 26.8407 33.5438 26.7756C33.772 26.7104 33.9744 26.5759 34.1229 26.3908C35.2997 24.8991 36.9127 23.8119 38.737 23.2806C40.5612 22.7494 42.5058 22.8007 44.2995 23.4273C46.0932 24.054 47.6466 25.2248 48.7432 26.7765C49.8397 28.3281 50.4247 30.1833 50.4166 32.0833V48.125ZM13.4475 4.58792C13.1782 4.56894 12.908 4.56741 12.6385 4.58333C11.7809 4.52498 10.9204 4.64334 10.1104 4.93107C9.3004 5.2188 8.55809 5.66979 7.92947 6.25608C7.30085 6.84238 6.7993 7.5515 6.4559 8.33953C6.11249 9.12755 5.93455 9.97769 5.93308 10.8373C5.92596 11.6879 6.09367 12.5309 6.42579 13.314C6.75792 14.0972 7.24738 14.8037 7.86384 15.3899C8.48029 15.976 9.21059 16.4293 10.0094 16.7216C10.8083 17.0139 11.6587 17.1389 12.5079 17.089H12.572C13.3929 17.1464 14.217 17.0417 14.9973 16.7807C15.7777 16.5197 16.499 16.1075 17.12 15.5677C17.7411 15.028 18.2497 14.3711 18.617 13.6348C18.9842 12.8984 19.2028 12.097 19.2603 11.2761C19.3177 10.4553 19.213 9.6312 18.952 8.85086C18.691 8.07051 18.2788 7.34922 17.739 6.72816C17.1993 6.1071 16.5425 5.59844 15.8061 5.23121C15.0698 4.86399 14.2683 4.6454 13.4475 4.58792ZM13.3672 14.8042C13.1026 14.8282 12.8362 14.8259 12.572 14.7973H12.5079C11.9563 14.8388 11.4022 14.7648 10.8809 14.58C10.3595 14.3953 9.88246 14.1039 9.48008 13.7244C9.07771 13.3449 8.75888 12.8857 8.54395 12.3761C8.32903 11.8664 8.22274 11.3176 8.23185 10.7646C8.24097 10.2115 8.3653 9.6665 8.59691 9.16423C8.82852 8.66197 9.16231 8.21351 9.57698 7.8475C9.99165 7.48149 10.4781 7.20596 11.0052 7.03852C11.5324 6.87107 12.0886 6.81538 12.6385 6.875C13.69 6.77836 14.7368 7.10338 15.5486 7.77855C16.3604 8.45372 16.8708 9.42374 16.9675 10.4752C17.0641 11.5267 16.7391 12.5735 16.0639 13.3853C15.3887 14.1972 14.4187 14.7075 13.3672 14.8042Z" fill="white"/>
</svg>